<?xml version="1.0" encoding="UTF-8"?>
<svg width="1200" height="1000" xmlns="http://www.w3.org/2000/svg" viewBox="0 0 1200 1000">
  <!-- Define styles -->
  <defs>
    <style>
      .wall-exterior { stroke: black; stroke-width: 8; fill: none; }
      .wall-interior { stroke: red; stroke-width: 4; fill: none; stroke-dasharray: 10,5; }
      .dimension-line { stroke: blue; stroke-width: 1; fill: none; stroke-dasharray: 5,5; }
      .dimension-text { fill: blue; font-family: Arial; font-size: 16px; }
      .window { stroke: blue; stroke-width: 4; fill: lightblue; opacity: 0.5; }
      .door { stroke: brown; stroke-width: 4; fill: none; }
      .door-arc { stroke: brown; stroke-width: 2; fill: none; }
      .section-cut { stroke: red; stroke-width: 3; fill: none; stroke-dasharray: 15,10; }
      .section-arrow { stroke: red; stroke-width: 3; fill: none; }
      .section-label { fill: red; font-family: Arial; font-size: 14px; font-weight: bold; }
      .kitchen-bench { stroke: black; stroke-width: 2; fill: #8B7355; }
      .kitchen-cupboard { stroke: black; stroke-width: 1; fill: #A0826D; }
      .furniture { stroke: black; stroke-width: 2; fill: #D2B48C; }
    </style>
  </defs>

  <!-- Background -->
  <rect width="1200" height="1000" fill="white"/>

  <!-- Title -->
  <text x="600" y="30" text-anchor="middle" font-size="20" font-weight="bold">Proposed Plan</text>

  <!-- Scale: 1 meter = 100 pixels -->

  <!-- Outer walls - Main structure -->
  <!-- Based on visible dimensions: 3.0m width, multiple sections vertically -->

  <!-- OPEN LIVING SPACE (former Bedroom 1 & 2) - 3.0m x 7.4m -->
  <!-- ALL INTERIOR WALLS REMOVED -->
  <line x1="100" y1="100" x2="400" y2="100" class="wall-exterior"/> <!-- EXTERIOR: Top wall - 3.0m -->
  <line x1="100" y1="100" x2="100" y2="740" class="wall-exterior"/> <!-- EXTERIOR: Left wall - 6.4m (to bathroom) -->
  <line x1="400" y1="100" x2="400" y2="200" class="wall-exterior"/> <!-- EXTERIOR: Right wall - 1.0m (building perimeter) -->

  <!-- BATHROOM - 1.9m x 1.0m (MAINTAINED) -->
  <line x1="100" y1="740" x2="290" y2="740" class="wall-interior"/> <!-- INTERIOR: Top wall - bathroom maintained -->
  <line x1="100" y1="740" x2="100" y2="840" class="wall-exterior"/> <!-- EXTERIOR: Left wall - 1.0m -->
  <line x1="290" y1="740" x2="290" y2="840" class="wall-interior"/> <!-- INTERIOR: Right wall - bathroom maintained -->
  <line x1="100" y1="840" x2="290" y2="840" class="wall-exterior"/> <!-- EXTERIOR: Bottom wall - 1.9m -->
  <line x1="290" y1="840" x2="400" y2="840" class="wall-exterior"/> <!-- EXTERIOR: Bottom wall - 1.1m (south perimeter) -->

  <!-- LIVING ROOM (Right side) - 2.9m x 6.4m -->
  <line x1="400" y1="200" x2="690" y2="200" class="wall-exterior"/> <!-- EXTERIOR: Top wall - 2.9m -->
  <line x1="690" y1="200" x2="690" y2="540" class="wall-exterior"/> <!-- EXTERIOR: Right wall - partial (3.4m, stops where kitchen opening starts) -->
  <line x1="400" y1="840" x2="690" y2="840" class="wall-exterior"/> <!-- EXTERIOR: Bottom wall (aligned with bathroom) -->
  <!-- Left wall is interior - shared with bedrooms and corridor -->

  <!-- KITCHEN (Right of Living Room) - 2.0m x 3.0m -->
  <line x1="690" y1="540" x2="890" y2="540" class="wall-exterior"/> <!-- EXTERIOR: Top wall - 2.0m -->
  <line x1="890" y1="540" x2="890" y2="840" class="wall-exterior"/> <!-- EXTERIOR: Right wall - 3.0m -->
  <line x1="690" y1="840" x2="890" y2="840" class="wall-exterior"/> <!-- EXTERIOR: Bottom wall (aligned with living room) -->
  <!-- No left wall - open to living room (3.0m opening from y=540 to y=840) -->

  <!-- Dimensions -->
  <!-- TOP SIDE - Chained dimensions -->
  <!-- Bedroom 1 width: 3.0m -->
  <line x1="100" y1="70" x2="400" y2="70" class="dimension-line"/>
  <line x1="100" y1="60" x2="100" y2="80" class="dimension-line"/>
  <line x1="400" y1="60" x2="400" y2="80" class="dimension-line"/>
  <text x="250" y="65" class="dimension-text" text-anchor="middle">3.0m</text>

  <!-- Living room width: 2.9m (at top level) -->
  <line x1="400" y1="170" x2="690" y2="170" class="dimension-line"/>
  <line x1="400" y1="160" x2="400" y2="180" class="dimension-line"/>
  <line x1="690" y1="160" x2="690" y2="180" class="dimension-line"/>
  <text x="545" y="165" class="dimension-text" text-anchor="middle">2.9m</text>

  <!-- Kitchen width: 2.0m (at top level) -->
  <line x1="690" y1="170" x2="890" y2="170" class="dimension-line"/>
  <line x1="690" y1="160" x2="690" y2="180" class="dimension-line"/>
  <line x1="890" y1="160" x2="890" y2="180" class="dimension-line"/>
  <text x="790" y="165" class="dimension-text" text-anchor="middle">2.0m</text>

  <!-- Total top width: 7.9m (from bedroom left to kitchen right at top level) -->
  <line x1="100" y1="40" x2="890" y2="40" class="dimension-line"/>
  <line x1="100" y1="30" x2="100" y2="50" class="dimension-line"/>
  <line x1="890" y1="30" x2="890" y2="50" class="dimension-line"/>
  <text x="495" y="35" class="dimension-text" text-anchor="middle">7.9m</text>

  <!-- Bedroom 1 height: 3.4m -->
  <line x1="70" y1="100" x2="70" y2="440" class="dimension-line"/>
  <line x1="60" y1="100" x2="80" y2="100" class="dimension-line"/>
  <line x1="60" y1="440" x2="80" y2="440" class="dimension-line"/>
  <text x="50" y="270" class="dimension-text">3.4m</text>

  <!-- Total left exterior wall height: 7.4m (3.4m + 3.0m + 1.0m) -->
  <line x1="30" y1="100" x2="30" y2="840" class="dimension-line"/>
  <line x1="20" y1="100" x2="40" y2="100" class="dimension-line"/>
  <line x1="20" y1="840" x2="40" y2="840" class="dimension-line"/>
  <text x="10" y="470" class="dimension-text">7.4m</text>

  <!-- Living room width: 2.9m -->
  <line x1="400" y1="170" x2="690" y2="170" class="dimension-line"/>
  <line x1="400" y1="160" x2="400" y2="180" class="dimension-line"/>
  <line x1="690" y1="160" x2="690" y2="180" class="dimension-line"/>
  <text x="545" y="165" class="dimension-text" text-anchor="middle">2.9m</text>

  <!-- Bathroom width: 1.9m -->
  <line x1="100" y1="870" x2="290" y2="870" class="dimension-line"/>
  <line x1="100" y1="860" x2="100" y2="880" class="dimension-line"/>
  <line x1="290" y1="860" x2="290" y2="880" class="dimension-line"/>
  <text x="195" y="895" class="dimension-text" text-anchor="middle">1.9m</text>

  <!-- Bathroom/Corridor height: 1.0m -->
  <line x1="70" y1="740" x2="70" y2="840" class="dimension-line"/>
  <line x1="60" y1="740" x2="80" y2="740" class="dimension-line"/>
  <line x1="60" y1="840" x2="80" y2="840" class="dimension-line"/>
  <text x="50" y="790" class="dimension-text">1.0m</text>

  <!-- Corridor width: 1.1m -->
  <line x1="290" y1="870" x2="400" y2="870" class="dimension-line"/>
  <line x1="290" y1="860" x2="290" y2="880" class="dimension-line"/>
  <line x1="400" y1="860" x2="400" y2="880" class="dimension-line"/>
  <text x="345" y="895" class="dimension-text" text-anchor="middle">1.1m</text>

  <!-- Living room width (bottom): 2.9m -->
  <line x1="400" y1="870" x2="690" y2="870" class="dimension-line"/>
  <line x1="400" y1="860" x2="400" y2="880" class="dimension-line"/>
  <line x1="690" y1="860" x2="690" y2="880" class="dimension-line"/>
  <text x="545" y="895" class="dimension-text" text-anchor="middle">2.9m</text>

  <!-- Kitchen width (bottom): 2.0m -->
  <line x1="690" y1="870" x2="890" y2="870" class="dimension-line"/>
  <line x1="690" y1="860" x2="690" y2="880" class="dimension-line"/>
  <line x1="890" y1="860" x2="890" y2="880" class="dimension-line"/>
  <text x="790" y="895" class="dimension-text" text-anchor="middle">2.0m</text>

  <!-- RIGHT SIDE - Chained dimensions -->
  <!-- Living room top to kitchen top: 3.4m -->
  <line x1="920" y1="200" x2="920" y2="540" class="dimension-line"/>
  <line x1="910" y1="200" x2="930" y2="200" class="dimension-line"/>
  <line x1="910" y1="540" x2="930" y2="540" class="dimension-line"/>
  <text x="950" y="370" class="dimension-text">3.4m</text>

  <!-- Kitchen height: 3.0m -->
  <line x1="920" y1="540" x2="920" y2="840" class="dimension-line"/>
  <line x1="910" y1="540" x2="930" y2="540" class="dimension-line"/>
  <line x1="910" y1="840" x2="930" y2="840" class="dimension-line"/>
  <text x="950" y="690" class="dimension-text">3.0m</text>

  <!-- Total right exterior wall height: 6.4m (from living room top to bottom) -->
  <line x1="960" y1="200" x2="960" y2="840" class="dimension-line"/>
  <line x1="950" y1="200" x2="970" y2="200" class="dimension-line"/>
  <line x1="950" y1="840" x2="970" y2="840" class="dimension-line"/>
  <text x="990" y="520" class="dimension-text">6.4m</text>

  <!-- Opening between Living Room and Kitchen: 3.0m -->
  <line x1="660" y1="540" x2="660" y2="840" class="dimension-line"/>
  <line x1="650" y1="540" x2="670" y2="540" class="dimension-line"/>
  <line x1="650" y1="840" x2="670" y2="840" class="dimension-line"/>
  <text x="640" y="690" class="dimension-text">3.0m</text>

  <!-- Total width at bottom: 7.9m (bathroom 1.9m + corridor 1.1m + living room 2.9m + kitchen 2.0m) -->
  <line x1="100" y1="920" x2="890" y2="920" class="dimension-line"/>
  <line x1="100" y1="910" x2="100" y2="930" class="dimension-line"/>
  <line x1="890" y1="910" x2="890" y2="930" class="dimension-line"/>
  <text x="495" y="945" class="dimension-text" text-anchor="middle">7.9m</text>

  <!-- Bedroom Windows (2 windows) -->
  <!-- Window 1 - Top wall -->
  <rect x="150" y="96" width="80" height="8" class="window"/>
  <text x="190" y="90" font-size="12" fill="blue" text-anchor="middle">Window 1</text>

  <!-- Window 2 - Left wall -->
  <rect x="96" y="200" width="8" height="80" class="window"/>
  <text x="75" y="240" font-size="12" fill="blue" text-anchor="middle" transform="rotate(-90 75 240)">Window 2</text>

  <!-- Bathroom Door - maintained -->
  <line x1="290" y1="760" x2="290" y2="820" class="door"/>
  <path d="M 290 760 Q 250 770 250 800" class="door-arc"/>
  <text x="270" y="795" font-size="10" fill="brown">Door</text>

  <!-- Kitchen Furniture -->
  <!-- Kitchen bench along south wall: 3.0m long × 0.6m deep -->
  <!-- South wall is at y=840, bench extends inward 0.6m (60px) to y=780 -->
  <!-- Bench runs full width of kitchen from x=690 to x=890 (2.0m) -->
  <rect x="690" y="780" width="200" height="60" class="kitchen-bench"/>
  
  <!-- Kitchen cupboards below bench (same footprint) -->
  <rect x="695" y="785" width="190" height="50" class="kitchen-cupboard"/>
  
  <text x="790" y="815" font-size="10" text-anchor="middle">Kitchen Bench</text>

  <!-- Dining table and chairs in living room (grouped for easy movement) -->
  <!-- 4-person table: 1.2m × 0.8m positioned in living room -->
  <!-- Living room is from x=400 to x=690 (2.9m = 290px) -->
  <!-- Table centered at x=545 (middle of living room), y=650 -->
  <g id="dining-set">
    <rect x="485" y="610" width="120" height="80" class="furniture"/>
    
    <!-- 4 chairs around table (0.5m × 0.5m each) -->
    <rect x="430" y="630" width="50" height="50" class="furniture"/> <!-- left chair -->
    <rect x="610" y="630" width="50" height="50" class="furniture"/> <!-- right chair -->
    <rect x="515" y="555" width="50" height="50" class="furniture"/> <!-- top chair -->
    <rect x="515" y="695" width="50" height="50" class="furniture"/> <!-- bottom chair -->
    
    <text x="545" y="655" font-size="10" text-anchor="middle">Table</text>
  </g>

  <!-- Bedroom doors REMOVED - open plan -->

  <!-- Room labels -->
  <text x="250" y="400" font-size="18" font-weight="bold" text-anchor="middle">OPEN LIVING SPACE</text>
  <text x="250" y="420" font-size="14" text-anchor="middle">3.0m × 7.4m</text>
  <text x="250" y="440" font-size="12" text-anchor="middle" font-style="italic">(Loft Bedroom Above)</text>

  <text x="195" y="785" font-size="18" font-weight="bold" text-anchor="middle">BATHROOM</text>
  <text x="195" y="805" font-size="14" text-anchor="middle">1.9m × 1.0m</text>

  <text x="545" y="400" font-size="18" font-weight="bold" text-anchor="middle">LIVING ROOM</text>
  <text x="545" y="420" font-size="14" text-anchor="middle">2.9m × 6.4m</text>

  <text x="790" y="600" font-size="18" font-weight="bold" text-anchor="middle">KITCHEN</text>
  <text x="790" y="620" font-size="14" text-anchor="middle">2.0m × 3.0m</text>

  <!-- Legend -->
  <text x="1000" y="100" font-size="14" font-weight="bold">Legend:</text>
  <line x1="1000" y1="120" x2="1050" y2="120" class="wall-exterior"/>
  <text x="1060" y="125" font-size="12">Exterior Wall</text>

  <line x1="1000" y1="140" x2="1050" y2="140" class="wall-interior"/>
  <text x="1060" y="145" font-size="12">Interior Wall</text>

  <rect x="1000" y="155" width="50" height="8" class="window"/>
  <text x="1060" y="165" font-size="12">Window</text>

  <line x1="1000" y1="180" x2="1050" y2="180" class="dimension-line"/>
  <text x="1060" y="185" font-size="12">Dimension</text>

  <!-- Notes -->
  <text x="1000" y="200" font-size="12" font-style="italic">Scale: 1m = 100px</text>
  <text x="1000" y="220" font-size="12" font-style="italic">Editable in any SVG editor</text>

  <!-- Section Cut Line -->
  <!-- Section cuts horizontally through living room and kitchen area -->
  <!-- Cut line at y=620 (moved 1m south from y=520) -->
  <line x1="100" y1="620" x2="890" y2="620" class="section-cut"/>

  <!-- Section markers (arrows showing direction of view) -->
  <!-- Left arrow pointing down (we're looking from top to bottom) -->
  <path d="M 100 620 L 85 605 M 100 620 L 85 635" class="section-arrow"/>

  <!-- Right arrow pointing down -->
  <path d="M 890 620 L 905 605 M 890 620 L 905 635" class="section-arrow"/>

  <!-- Section label -->
  <text x="495" y="610" class="section-label" text-anchor="middle">SECTION A-A</text>


</svg>
